<svg xmlns="http://www.w3.org/2000/svg" xmlns:xlink="http://www.w3.org/1999/xlink" version="1.1" x="0px" y="0px" viewBox="0 0 100 125" enable-background="new 0 0 100 100" xml:space="preserve"><path d="M56.915,66.224c-0.139,0-0.279-0.038-0.405-0.119l-6.06-3.903c-0.167-0.108-0.285-0.277-0.327-0.473  c-0.042-0.194-0.005-0.397,0.103-0.564l25.749-39.968c0.225-0.348,0.687-0.45,1.037-0.224l6.06,3.904  c0.167,0.107,0.285,0.277,0.327,0.472s0.005,0.397-0.103,0.565L57.547,65.88C57.403,66.103,57.162,66.224,56.915,66.224z   M51.894,61.346l4.798,3.091L81.628,25.73l-4.798-3.091L51.894,61.346z"/><g><polygon points="50.49,68.795 56.916,65.474 50.857,61.57  "/><path d="M50.49,69.545c-0.142,0-0.283-0.04-0.406-0.119c-0.226-0.146-0.356-0.4-0.343-0.669l0.367-7.225   c0.014-0.268,0.168-0.507,0.407-0.629c0.238-0.123,0.523-0.108,0.749,0.036l6.06,3.903c0.225,0.146,0.355,0.399,0.343,0.667   c-0.013,0.267-0.167,0.507-0.404,0.63l-6.427,3.321C50.726,69.518,50.607,69.545,50.49,69.545z M51.54,62.902l-0.235,4.627   l4.115-2.127L51.54,62.902z"/></g><path d="M82.664,26.256c-0.139,0-0.279-0.039-0.405-0.12l-6.06-3.904c-0.348-0.224-0.448-0.688-0.225-1.037l1.948-3.024  c1.303-2.022,4.006-2.607,6.028-1.304l0,0c2.015,1.298,2.598,3.993,1.301,6.009l-1.956,3.036  C83.152,26.135,82.911,26.256,82.664,26.256z M77.643,21.378l4.798,3.091l1.55-2.405c0.851-1.32,0.468-3.085-0.852-3.936  c-1.327-0.854-3.101-0.469-3.954,0.855L77.643,21.378z"/><path d="M67.405,78.477H50.492c-0.414,0-0.75-0.336-0.75-0.75V71.26c0-0.414,0.336-0.75,0.75-0.75s0.75,0.336,0.75,0.75v5.717  h15.413V61.563H62.57c-0.414,0-0.75-0.336-0.75-0.75s0.336-0.75,0.75-0.75h4.835c0.414,0,0.75,0.336,0.75,0.75v16.913  C68.155,78.141,67.819,78.477,67.405,78.477z"/><path d="M43.96,84.029c-8.138,0-14.759-6.621-14.759-14.759c0-8.139,6.621-14.76,14.759-14.76c2.595,0,5.147,0.684,7.382,1.976  c0.358,0.208,0.48,0.666,0.273,1.025c-0.209,0.358-0.667,0.479-1.025,0.273c-2.006-1.161-4.299-1.774-6.63-1.774  c-7.311,0-13.259,5.948-13.259,13.26c0,7.311,5.948,13.259,13.259,13.259c7.312,0,13.26-5.948,13.26-13.259  c0-0.508-0.029-1.02-0.087-1.521c-0.047-0.412,0.248-0.784,0.659-0.831c0.418-0.036,0.784,0.249,0.831,0.659  c0.064,0.56,0.097,1.129,0.097,1.693C58.72,77.408,52.099,84.029,43.96,84.029z"/><path d="M43.96,42.37c-0.129,0-0.259-0.034-0.375-0.101l-9.956-5.748c-0.232-0.134-0.375-0.381-0.375-0.649V24.376  c0-0.268,0.143-0.516,0.375-0.649l9.956-5.748c0.232-0.134,0.518-0.134,0.75,0l9.956,5.748c0.232,0.134,0.375,0.381,0.375,0.649  v11.496c0,0.268-0.143,0.516-0.375,0.649l-9.956,5.748C44.219,42.336,44.089,42.37,43.96,42.37z M34.754,35.439l9.206,5.315  l9.206-5.315v-10.63l-9.206-5.314l-9.206,5.314V35.439z"/><path d="M43.96,48.635c-10.207,0-18.51-8.304-18.51-18.511c0-10.207,8.304-18.51,18.51-18.51c2.95,0,5.77,0.673,8.382,2.002  c0.369,0.188,0.517,0.639,0.329,1.008c-0.188,0.37-0.641,0.518-1.009,0.329c-2.399-1.22-4.991-1.839-7.702-1.839  c-9.379,0-17.01,7.631-17.01,17.01c0,9.38,7.631,17.011,17.01,17.011c9.38,0,17.011-7.631,17.011-17.011  c0-5.278-2.39-10.169-6.557-13.42c-0.327-0.255-0.385-0.726-0.131-1.053c0.255-0.327,0.726-0.386,1.053-0.13  c4.534,3.537,7.135,8.86,7.135,14.603C62.471,40.331,54.167,48.635,43.96,48.635z"/><path d="M43.949,45.863c-8.13,0-15.04-6.28-15.68-14.52c-0.194-2.501,0.191-4.936,1.145-7.237c0.158-0.384,0.597-0.566,0.98-0.406  c0.383,0.159,0.564,0.598,0.406,0.98c-0.863,2.081-1.211,4.284-1.036,6.546c0.609,7.827,7.474,13.693,15.299,13.093  c3.792-0.295,7.242-2.048,9.715-4.938c2.473-2.89,3.672-6.569,3.377-10.361c-0.608-7.828-7.476-13.704-15.298-13.093  c-4.405,0.343-8.332,2.655-10.774,6.343c-0.229,0.346-0.695,0.439-1.04,0.211c-0.345-0.229-0.44-0.694-0.211-1.04  c2.7-4.076,7.041-6.631,11.909-7.01c8.659-0.674,16.238,5.82,16.911,14.472c0.325,4.191-1,8.258-3.734,11.453  c-2.733,3.194-6.546,5.132-10.738,5.458C44.767,45.847,44.356,45.863,43.949,45.863z"/><path d="M43.959,30.874c-0.127,0-0.256-0.032-0.375-0.101l-9.956-5.748c-0.359-0.207-0.481-0.666-0.274-1.024  c0.207-0.359,0.666-0.481,1.024-0.274l9.956,5.748c0.359,0.207,0.481,0.666,0.274,1.024C44.471,30.74,44.218,30.874,43.959,30.874z"/><path d="M52.311,26.054c-0.26,0-0.512-0.134-0.65-0.375c-0.207-0.358-0.084-0.817,0.274-1.024l1.606-0.928  c0.359-0.209,0.818-0.084,1.024,0.274c0.207,0.358,0.084,0.817-0.274,1.024l-1.606,0.928C52.566,26.021,52.438,26.054,52.311,26.054  z"/><path d="M43.96,42.37c-0.414,0-0.75-0.336-0.75-0.75V30.124c0-0.268,0.143-0.516,0.375-0.649l6.743-3.893  c0.358-0.208,0.817-0.085,1.024,0.274c0.207,0.359,0.084,0.817-0.274,1.024l-6.368,3.677V41.62  C44.71,42.034,44.374,42.37,43.96,42.37z"/><path d="M43.96,26.724c-2.173,0-3.812-1.009-3.812-2.348c0-0.956,0.81-1.753,2.167-2.132c0.396-0.114,0.812,0.121,0.924,0.521  c0.112,0.399-0.122,0.812-0.521,0.924c-0.757,0.211-1.071,0.552-1.071,0.688c0,0.246,0.81,0.848,2.312,0.848  c1.502,0,2.312-0.602,2.312-0.848c0-0.211-0.62-0.692-1.757-0.817c-0.412-0.046-0.708-0.417-0.663-0.828  c0.045-0.412,0.423-0.705,0.828-0.663c1.849,0.205,3.092,1.132,3.092,2.309C47.772,25.715,46.133,26.724,43.96,26.724z"/><path d="M32.089,36.978"/><path d="M32.897,56.334c-0.414,0-0.75-0.336-0.75-0.75v-6.962c0-0.414,0.336-0.75,0.75-0.75s0.75,0.336,0.75,0.75v6.962  C33.647,55.998,33.312,56.334,32.897,56.334z"/><path d="M30.162,51.808c-0.192,0-0.384-0.073-0.53-0.22c-0.293-0.293-0.293-0.768,0-1.061l2.754-2.754  c0.293-0.293,0.768-0.293,1.061,0l2.7,2.7c0.293,0.293,0.293,0.768,0,1.061s-0.768,0.293-1.061,0l-2.169-2.169l-2.224,2.224  C30.545,51.734,30.354,51.808,30.162,51.808z"/><path d="M75.367,88.235H18.409c-0.414,0-0.75-0.336-0.75-0.75V8.31c0-0.414,0.336-0.75,0.75-0.75h56.958  c0.414,0,0.75,0.336,0.75,0.75v11.352c0,0.414-0.336,0.75-0.75,0.75s-0.75-0.336-0.75-0.75V9.06H19.159v77.676h55.458V40.743  c0-0.414,0.336-0.75,0.75-0.75s0.75,0.336,0.75,0.75v46.742C76.117,87.899,75.781,88.235,75.367,88.235z"/><path d="M78.971,92.44H22.013c-0.414,0-0.75-0.336-0.75-0.75v-4.205c0-0.414,0.336-0.75,0.75-0.75s0.75,0.336,0.75,0.75v3.455  h55.458V35.164c0-0.414,0.336-0.75,0.75-0.75s0.75,0.336,0.75,0.75V91.69C79.721,92.104,79.385,92.44,78.971,92.44z"/><path d="M78.971,15.89c-0.414,0-0.75-0.336-0.75-0.75v-1.875h-2.854c-0.414,0-0.75-0.336-0.75-0.75s0.336-0.75,0.75-0.75h3.604  c0.414,0,0.75,0.336,0.75,0.75v2.625C79.721,15.554,79.385,15.89,78.971,15.89z"/><path d="M18.409,52.238c-2.4,0-4.354-1.953-4.354-4.354s1.953-4.354,4.354-4.354s4.354,1.953,4.354,4.354  c0,0.414-0.336,0.75-0.75,0.75s-0.75-0.336-0.75-0.75c0-1.573-1.28-2.854-2.854-2.854s-2.854,1.28-2.854,2.854  s1.28,2.854,2.854,2.854c0.414,0,0.75,0.336,0.75,0.75S18.823,52.238,18.409,52.238z"/><path d="M18.409,22.115c-2.4,0-4.354-1.953-4.354-4.354s1.953-4.354,4.354-4.354s4.354,1.953,4.354,4.354  c0,0.414-0.336,0.75-0.75,0.75s-0.75-0.336-0.75-0.75c0-1.573-1.28-2.854-2.854-2.854s-2.854,1.28-2.854,2.854  s1.28,2.854,2.854,2.854c0.414,0,0.75,0.336,0.75,0.75S18.823,22.115,18.409,22.115z"/><path d="M18.409,37.177c-2.4,0-4.354-1.953-4.354-4.354s1.953-4.354,4.354-4.354s4.354,1.953,4.354,4.354  c0,0.414-0.336,0.75-0.75,0.75s-0.75-0.336-0.75-0.75c0-1.573-1.28-2.854-2.854-2.854s-2.854,1.28-2.854,2.854  s1.28,2.854,2.854,2.854c0.414,0,0.75,0.336,0.75,0.75S18.823,37.177,18.409,37.177z"/><path d="M18.409,68.134c-2.4,0-4.354-1.953-4.354-4.354s1.953-4.354,4.354-4.354s4.354,1.953,4.354,4.354  c0,0.414-0.336,0.75-0.75,0.75s-0.75-0.336-0.75-0.75c0-1.573-1.28-2.854-2.854-2.854s-2.854,1.28-2.854,2.854  s1.28,2.854,2.854,2.854c0.414,0,0.75,0.336,0.75,0.75S18.823,68.134,18.409,68.134z"/><path d="M18.409,84.029c-2.4,0-4.354-1.953-4.354-4.354s1.953-4.354,4.354-4.354s4.354,1.953,4.354,4.354  c0,0.414-0.336,0.75-0.75,0.75s-0.75-0.336-0.75-0.75c0-1.573-1.28-2.854-2.854-2.854s-2.854,1.28-2.854,2.854  s1.28,2.854,2.854,2.854c0.414,0,0.75,0.336,0.75,0.75S18.823,84.029,18.409,84.029z"/><text x="0" y="115" fill="#000000" font-size="5px" font-weight="bold" font-family="'Helvetica Neue', Helvetica, Arial-Unicode, Arial, Sans-serif">Created by Yoon Ro</text><text x="0" y="120" fill="#000000" font-size="5px" font-weight="bold" font-family="'Helvetica Neue', Helvetica, Arial-Unicode, Arial, Sans-serif">from the Noun Project</text></svg>